<?xml version="1.0" standalone="no"?>
<!DOCTYPE svg PUBLIC "-//W3C//DTD SVG 20010904//EN"
 "http://www.w3.org/TR/2001/REC-SVG-20010904/DTD/svg10.dtd">
<svg version="1.0" xmlns="http://www.w3.org/2000/svg"
 width="1201.000000pt" height="1201.000000pt" viewBox="0 0 1201.000000 1201.000000"
 preserveAspectRatio="xMidYMid meet">
<metadata>
Created by potrace 1.11, written by Peter Selinger 2001-2013
</metadata>
<g transform="translate(0.000000,1201.000000) scale(0.100000,-0.100000)"
fill="#000000" stroke="none">
<path d="M6341 11239 c-72 -36 -188 -154 -244 -250 -75 -128 -125 -342 -114
-488 l6 -76 -72 -46 c-40 -26 -99 -58 -131 -73 -33 -14 -114 -56 -180 -93
-368 -202 -694 -432 -951 -672 -392 -367 -578 -912 -558 -1636 8 -291 69 -548
198 -840 181 -408 688 -1192 1038 -1603 294 -346 534 -698 669 -982 183 -384
295 -699 328 -920 47 -315 50 -354 40 -488 -30 -377 -154 -693 -399 -1023
-179 -242 -370 -409 -946 -832 -163 -120 -235 -159 -421 -226 -218 -78 -265
-109 -267 -175 -1 -47 29 -78 116 -122 104 -53 172 -67 327 -66 256 0 414 36
684 156 154 69 266 128 655 344 354 197 614 391 846 633 336 350 534 734 616
1194 31 172 38 509 15 672 -56 386 -201 795 -480 1353 -122 243 -312 589 -401
730 -12 19 -43 71 -70 115 -26 44 -90 149 -141 233 -114 186 -287 487 -325
562 -15 30 -54 121 -87 201 -33 80 -79 186 -101 235 -48 107 -91 263 -122 439
-29 170 -32 436 -5 600 55 342 222 715 463 1031 65 85 167 186 257 254 l56 42
62 -25 c220 -91 408 -100 623 -30 292 94 427 169 591 329 89 88 123 146 155
271 23 92 24 159 4 237 -23 86 -38 113 -122 216 -91 112 -115 134 -202 181
-67 36 -68 36 -259 49 -262 17 -308 12 -431 -49 -56 -29 -136 -59 -187 -71
-49 -12 -114 -28 -144 -35 -30 -8 -83 -16 -116 -19 -34 -3 -73 -11 -86 -17
-19 -8 -35 -7 -70 5 -25 8 -80 18 -122 22 -53 5 -76 11 -76 20 0 21 100 162
129 184 15 10 50 24 77 30 27 7 79 26 116 43 77 35 98 65 98 142 0 56 -24 154
-50 204 -30 60 -102 115 -188 145 -40 14 -43 14 -101 -15z m1299 -804 c132
-69 171 -170 131 -339 -18 -76 -30 -102 -85 -180 -101 -146 -232 -270 -344
-326 -57 -28 -96 -45 -114 -49 -4 -1 -39 -13 -78 -27 -106 -37 -187 -39 -288
-7 -46 14 -82 28 -80 32 2 3 18 34 36 68 46 89 65 178 67 320 2 116 3 123 29
153 14 17 26 37 26 44 0 7 27 52 60 100 33 49 60 91 60 94 0 3 19 24 42 45 46
43 109 74 167 83 20 3 38 8 41 11 3 3 70 3 150 1 115 -3 152 -8 180 -23z"/>
<path d="M6155 650 c4 -6 48 -9 103 -9 85 2 91 3 47 9 -74 12 -157 12 -150 0z"/>
</g>
</svg>
